<?xml version="1.0" encoding="UTF-8" standalone="no"?>
<!-- Created with Inkscape (http://www.inkscape.org/) -->

<svg
   xmlns:dc="http://purl.org/dc/elements/1.1/"
   xmlns:cc="http://creativecommons.org/ns#"
   xmlns:rdf="http://www.w3.org/1999/02/22-rdf-syntax-ns#"
   xmlns:svg="http://www.w3.org/2000/svg"
   xmlns="http://www.w3.org/2000/svg"
   xmlns:sodipodi="http://sodipodi.sourceforge.net/DTD/sodipodi-0.dtd"
   xmlns:inkscape="http://www.inkscape.org/namespaces/inkscape"
   width="210mm"
   height="297mm"
   viewBox="0 0 210 297"
   version="1.1"
   id="svg8"
   inkscape:version="0.92.3 (2405546, 2018-03-11)"
   sodipodi:docname="logo.svg">
  <defs
     id="defs2" />
  <sodipodi:namedview
     id="base"
     pagecolor="#ffffff"
     bordercolor="#666666"
     borderopacity="1.0"
     inkscape:pageopacity="0.0"
     inkscape:pageshadow="2"
     inkscape:zoom="0.54"
     inkscape:cx="377.68502"
     inkscape:cy="513.88846"
     inkscape:document-units="mm"
     inkscape:current-layer="layer1"
     showgrid="false"
     inkscape:window-width="1920"
     inkscape:window-height="1000"
     inkscape:window-x="0"
     inkscape:window-y="0"
     inkscape:window-maximized="1" />
  <metadata
     id="metadata5">
    <rdf:RDF>
      <cc:Work
         rdf:about="">
        <dc:format>image/svg+xml</dc:format>
        <dc:type
           rdf:resource="http://purl.org/dc/dcmitype/StillImage" />
        <dc:title></dc:title>
      </cc:Work>
    </rdf:RDF>
  </metadata>
  <g
     inkscape:label="Layer 1"
     inkscape:groupmode="layer"
     id="layer1">
    <path
       style="fill:#0098ce;fill-opacity:1;stroke:#00ffff;stroke-width:0.5;stroke-miterlimit:4;stroke-dasharray:none;stroke-opacity:1"
       d="M 98.728548,83.863232 A 76.680168,77.66011 0 0 0 22.307892,156.27431 c 6.065255,-3.53572 11.795659,-6.22825 17.190683,-8.07496 7.894875,-2.75097 16.09681,-4.12636 24.605733,-4.12636 9.649293,0 20.921575,2.35803 33.81654,7.07398 l 1.97352,0.70745 c 0.701762,0.2358 1.666822,0.5501 2.894912,0.9431 13.59673,4.87315 24.51762,7.30963 32.76338,7.30963 7.54399,0 15.00062,-1.49306 22.36917,-4.47983 5.01289,-2.00802 10.38408,-4.83736 16.11065,-8.47959 A 76.680168,77.66011 0 0 0 98.728548,83.863232 Z"
       id="path906"
       inkscape:connector-curvature="0" />
    <path
       style="fill:#0036ce;fill-opacity:1;stroke:#00ffff;stroke-width:0.5;stroke-miterlimit:4;stroke-dasharray:none;stroke-opacity:1"
       d="m 61.077618,163.6444 c -7.719433,0 -15.350733,1.53229 -22.894726,4.59765 -4.71305,1.86597 -9.631786,4.42234 -14.755688,7.66879 a 76.680168,77.66011 0 0 0 75.301344,63.27262 76.680168,77.66011 0 0 0 76.410322,-72.19508 c -6.38874,3.77539 -12.43613,6.63363 -18.13843,8.56382 -7.80715,2.67237 -15.96503,4.00854 -24.47395,4.00854 -9.6493,0 -20.87753,-2.31881 -33.684772,-6.95616 -0.96493,-0.3144 -1.66669,-0.55025 -2.1053,-0.70745 -0.61404,-0.2358 -1.579097,-0.5501 -2.894907,-0.9431 -13.596733,-4.87315 -24.518132,-7.30963 -32.763893,-7.30963 z"
       id="path870"
       inkscape:connector-curvature="0" />
    <flowRoot
       xml:space="preserve"
       id="flowRoot876"
       style="font-style:normal;font-weight:normal;font-size:40px;line-height:1.25;font-family:sans-serif;letter-spacing:0px;word-spacing:0px;fill:#000000;fill-opacity:1;stroke:none"
       transform="scale(0.26458333)"><flowRegion
         id="flowRegion878"><rect
           id="rect880"
           width="94.444443"
           height="127.77778"
           x="185.18518"
           y="116.96413" /></flowRegion><flowPara
         id="flowPara882"></flowPara></flowRoot>    <g
       aria-label="~"
       transform="scale(1.205561,0.82948936)"
       style="font-style:normal;font-weight:normal;font-size:194.31262207px;line-height:1.25;font-family:sans-serif;letter-spacing:0px;word-spacing:0px;fill:none;fill-opacity:1;stroke:none;stroke-width:0.36433613"
       id="text874-6">
      <path
         d="m 144.94738,26.020535 v 16.8885 q -9.96232,7.495457 -18.50144,10.721351 -8.44425,3.225893 -17.64754,3.225893 -10.436711,0 -24.289076,-5.597874 -1.043671,-0.379517 -1.518067,-0.569275 -0.664155,-0.284638 -2.087343,-0.759034 -14.706277,-5.882511 -23.624923,-5.882511 -8.349371,0 -16.508983,3.700289 -8.159612,3.60541 -17.457774,11.480385 V 42.33976 q 9.962317,-7.495458 18.406566,-10.721351 8.539129,-3.320773 17.742413,-3.320773 10.436713,0 24.383957,5.692753 0.948792,0.379517 1.423188,0.569275 0.759034,0.284638 2.087342,0.759034 14.70628,5.882511 23.62492,5.882511 8.15962,0 16.12947,-3.60541 8.06473,-3.60541 17.83729,-11.575264 z"
         style="font-size:194.31262207px;fill:none;stroke-width:0.36433613"
         id="path908"
         inkscape:connector-curvature="0" />
    </g>
    <flowRoot
       xml:space="preserve"
       id="flowRoot911"
       style="font-style:normal;font-weight:normal;font-size:666.66699219px;line-height:1.25;font-family:sans-serif;letter-spacing:0px;word-spacing:0px;fill:#000000;fill-opacity:1;stroke:none"
       transform="scale(0.26458333)"><flowRegion
         id="flowRegion913"
         style="font-size:666.66699219px"><rect
           id="rect915"
           width="87.037041"
           height="62.962963"
           x="272.22223"
           y="68.815979"
           style="font-size:666.66699219px" /></flowRegion><flowPara
         id="flowPara917">~</flowPara></flowRoot>    <flowRoot
       xml:space="preserve"
       id="flowRoot919"
       style="font-style:normal;font-weight:normal;font-size:40px;line-height:1.25;font-family:sans-serif;letter-spacing:0px;word-spacing:0px;fill:#000000;fill-opacity:1;stroke:none"
       transform="scale(0.26458333)"><flowRegion
         id="flowRegion921"><rect
           id="rect923"
           width="7.4074073"
           height="72.222221"
           x="275.92593"
           y="191.03821" /></flowRegion><flowPara
         id="flowPara925"></flowPara></flowRoot>    <flowRoot
       xml:space="preserve"
       id="flowRoot927"
       style="font-style:normal;font-weight:normal;font-size:40px;line-height:1.25;font-family:sans-serif;letter-spacing:0px;word-spacing:0px;fill:#000000;fill-opacity:1;stroke:none"
       transform="scale(0.26458333)"><flowRegion
         id="flowRegion929"><rect
           id="rect931"
           width="198.14815"
           height="127.77778"
           x="175.92592"
           y="83.630798" /></flowRegion><flowPara
         id="flowPara933"></flowPara></flowRoot>    <flowRoot
       xml:space="preserve"
       id="flowRoot935"
       style="font-style:normal;font-weight:normal;font-size:133.33332825px;line-height:1.25;font-family:sans-serif;letter-spacing:0px;word-spacing:0px;fill:#000000;fill-opacity:1;stroke:none"
       transform="scale(0.26458333)"><flowRegion
         id="flowRegion937"
         style="font-size:133.33332825px"><rect
           id="rect939"
           width="112.96296"
           height="79.629631"
           x="72.222221"
           y="924.37158"
           style="font-size:133.33332825px" /></flowRegion><flowPara
         id="flowPara941">~</flowPara></flowRoot>    <path
       sodipodi:nodetypes="ccscccscc"
       style="font-style:normal;font-weight:normal;font-size:medium;line-height:1.25;font-family:sans-serif;letter-spacing:0px;word-spacing:0px;fill:none;fill-opacity:1;stroke:#00ffff;stroke-width:0.48500001;stroke-miterlimit:4;stroke-dasharray:none;stroke-opacity:1"
       inkscape:connector-curvature="0"
       id="path951"
       d="m 188.14236,54.114998 c -9.40272,6.442589 -20.58366,11.540395 -28.64313,14.313211 -7.96993,2.772816 -16.29805,4.159093 -24.98437,4.159093 -9.85047,0 -21.31283,-2.40589 -34.38709,-7.217411 -0.985051,-0.326214 -1.701451,-0.570744 -2.149191,-0.733851 -0.62685,-0.245312 -1.6119,-0.571004 -2.95514,-0.978641 -13.88021,-5.056311 -25.02916,-7.584597 -33.44684,-7.584597 -7.88037,0 -15.6712,1.590356 -23.37247,4.770809 -7.70128,3.09903 -15.93982,8.033207 -24.71566,14.80201" />
    <g
       aria-label="moje piękne lo"
       transform="matrix(0.26458333,0,0,0.26458333,6.967626,20.010709)"
       style="font-style:normal;font-weight:normal;font-size:64px;line-height:1.25;font-family:sans-serif;letter-spacing:0px;word-spacing:0px;fill:#000000;fill-opacity:1;stroke:#00ffff;stroke-width:1.00157475;stroke-miterlimit:4;stroke-dasharray:none;stroke-opacity:1"
       id="flowRoot954">
      <path
         d="m 107.35547,63.826172 q 2.15625,-3.875 5.15625,-5.71875 3,-1.84375 7.0625,-1.84375 5.46875,0 8.4375,3.84375 2.96875,3.8125 2.96875,10.875 v 21.125 h -5.78125 v -20.9375 q 0,-5.03125 -1.78125,-7.46875 -1.78125,-2.4375 -5.4375,-2.4375 -4.46875,0 -7.0625,2.96875 -2.59375,2.96875 -2.59375,8.09375 v 19.78125 h -5.78125 v -20.9375 q 0,-5.0625 -1.78125,-7.46875 -1.781251,-2.4375 -5.500001,-2.4375 -4.40625,0 -7,3 -2.59375,2.96875 -2.59375,8.0625 v 19.78125 h -5.78125 v -35 h 5.78125 v 5.4375 q 1.96875,-3.21875 4.71875,-4.75 2.75,-1.53125 6.53125,-1.53125 3.812501,0 6.468751,1.9375 2.6875,1.9375 3.96875,5.625 z"
         id="path1010"
         inkscape:connector-curvature="0"
         style="stroke:#00ffff;stroke-width:1.00157475;stroke-miterlimit:4;stroke-dasharray:none;stroke-opacity:1" />
      <path
         d="m 156.04297,61.138672 q -4.625,0 -7.3125,3.625 -2.6875,3.59375 -2.6875,9.875 0,6.28125 2.65625,9.90625 2.6875,3.59375 7.34375,3.59375 4.59375,0 7.28125,-3.625 2.6875,-3.625 2.6875,-9.875 0,-6.21875 -2.6875,-9.84375 -2.6875,-3.65625 -7.28125,-3.65625 z m 0,-4.875 q 7.5,0 11.78125,4.875 4.28125,4.875 4.28125,13.5 0,8.59375 -4.28125,13.5 -4.28125,4.875 -11.78125,4.875 -7.53125,0 -11.8125,-4.875 -4.25,-4.90625 -4.25,-13.5 0,-8.625 4.25,-13.5 4.28125,-4.875 11.8125,-4.875 z"
         id="path1012"
         inkscape:connector-curvature="0"
         style="stroke:#00ffff;stroke-width:1.00157475;stroke-miterlimit:4;stroke-dasharray:none;stroke-opacity:1" />
      <path
         d="m 181.60547,57.107422 h 5.75 v 35.625 q 0,6.6875 -2.5625,9.687498 -2.53125,3 -8.1875,3 h -2.1875 v -4.875 h 1.53125 q 3.28125,0 4.46875,-1.531248 1.1875,-1.5 1.1875,-6.28125 z m 0,-13.625 h 5.75 v 7.28125 h -5.75 z"
         id="path1014"
         inkscape:connector-curvature="0"
         style="stroke:#00ffff;stroke-width:1.00157475;stroke-miterlimit:4;stroke-dasharray:none;stroke-opacity:1" />
      <path
         d="m 229.29297,73.169922 v 2.8125 h -26.4375 q 0.375,5.9375 3.5625,9.0625 3.21875,3.09375 8.9375,3.09375 3.3125,0 6.40625,-0.8125 3.125,-0.8125 6.1875,-2.4375 v 5.4375 q -3.09375,1.3125 -6.34375,2 -3.25,0.6875 -6.59375,0.6875 -8.375,0 -13.28125,-4.875 -4.875,-4.875 -4.875,-13.1875 0,-8.59375 4.625,-13.625 4.65625,-5.0625 12.53125,-5.0625 7.0625,0 11.15625,4.5625 4.125,4.53125 4.125,12.34375 z m -5.75,-1.6875 q -0.0625,-4.71875 -2.65625,-7.53125 -2.5625,-2.8125 -6.8125,-2.8125 -4.8125,0 -7.71875,2.71875 -2.875,2.71875 -3.3125,7.65625 z"
         id="path1016"
         inkscape:connector-curvature="0"
         style="stroke:#00ffff;stroke-width:1.00157475;stroke-miterlimit:4;stroke-dasharray:none;stroke-opacity:1" />
      <path
         d="m 264.66797,86.857422 v 18.562498 h -5.78125 V 57.107422 h 5.78125 v 5.3125 q 1.8125,-3.125 4.5625,-4.625 2.78125,-1.53125 6.625,-1.53125 6.375,0 10.34375,5.0625 4,5.0625 4,13.3125 0,8.25 -4,13.3125 -3.96875,5.0625 -10.34375,5.0625 -3.84375,0 -6.625,-1.5 -2.75,-1.53125 -4.5625,-4.65625 z m 19.5625,-12.21875 q 0,-6.34375 -2.625,-9.9375 -2.59375,-3.625 -7.15625,-3.625 -4.5625,0 -7.1875,3.625 -2.59375,3.59375 -2.59375,9.9375 0,6.34375 2.59375,9.96875 2.625,3.59375 7.1875,3.59375 4.5625,0 7.15625,-3.59375 2.625,-3.625 2.625,-9.96875 z"
         id="path1018"
         inkscape:connector-curvature="0"
         style="stroke:#00ffff;stroke-width:1.00157475;stroke-miterlimit:4;stroke-dasharray:none;stroke-opacity:1" />
      <path
         d="m 299.73047,57.107422 h 5.75 v 35 h -5.75 z m 0,-13.625 h 5.75 v 7.28125 h -5.75 z"
         id="path1020"
         inkscape:connector-curvature="0"
         style="stroke:#00ffff;stroke-width:1.00157475;stroke-miterlimit:4;stroke-dasharray:none;stroke-opacity:1" />
      <path
         d="m 347.41797,73.169922 v 2.8125 h -26.4375 q 0.375,5.9375 3.5625,9.0625 3.21875,3.09375 8.9375,3.09375 3.3125,0 6.40625,-0.8125 3.125,-0.8125 6.1875,-2.4375 v 5.4375 q -3.09375,1.3125 -6.34375,2 -3.25,0.6875 -6.59375,0.6875 -8.375,0 -13.28125,-4.875 -4.875,-4.875 -4.875,-13.1875 0,-8.59375 4.625,-13.625 4.65625,-5.0625 12.53125,-5.0625 7.0625,0 11.15625,4.5625 4.125,4.53125 4.125,12.34375 z m -5.75,-1.6875 q -0.0625,-4.71875 -2.65625,-7.53125 -2.5625,-2.8125 -6.8125,-2.8125 -4.8125,0 -7.71875,2.71875 -2.875,2.71875 -3.3125,7.65625 z m -4.71875,20.625 h 3.71875 q -1.40625,1.90625 -2.09375,3.28125 -0.65625,1.375 -0.65625,2.34375 0,1.4375 0.84375,2.15625 0.875,0.718748 2.5625,0.718748 1,0 1.96875,-0.25 0.96875,-0.21875 1.9375,-0.687498 v 4.156248 q -1.1875,0.3125 -2.25,0.46875 -1.0625,0.15625 -2,0.15625 -3.8125,0 -5.625,-1.375 -1.78125,-1.34375 -1.78125,-4.249998 0,-1.5 0.8125,-3.15625 0.84375,-1.625 2.5625,-3.5625 z"
         id="path1022"
         inkscape:connector-curvature="0"
         style="stroke:#00ffff;stroke-width:1.00157475;stroke-miterlimit:4;stroke-dasharray:none;stroke-opacity:1" />
      <path
         d="m 356.63672,43.482422 h 5.78125 v 28.71875 l 17.15625,-15.09375 h 7.34375 l -18.5625,16.375 19.34375,18.625 h -7.5 l -17.78125,-17.09375 v 17.09375 h -5.78125 z"
         id="path1024"
         inkscape:connector-curvature="0"
         style="stroke:#00ffff;stroke-width:1.00157475;stroke-miterlimit:4;stroke-dasharray:none;stroke-opacity:1" />
      <path
         d="m 423.07422,70.982422 v 21.125 h -5.75 v -20.9375 q 0,-4.96875 -1.9375,-7.4375 -1.9375,-2.46875 -5.8125,-2.46875 -4.65625,0 -7.34375,2.96875 -2.6875,2.96875 -2.6875,8.09375 v 19.78125 h -5.78125 v -35 h 5.78125 v 5.4375 q 2.0625,-3.15625 4.84375,-4.71875 2.8125,-1.5625 6.46875,-1.5625 6.03125,0 9.125,3.75 3.09375,3.71875 3.09375,10.96875 z"
         id="path1026"
         inkscape:connector-curvature="0"
         style="stroke:#00ffff;stroke-width:1.00157475;stroke-miterlimit:4;stroke-dasharray:none;stroke-opacity:1" />
      <path
         d="m 464.54297,73.169922 v 2.8125 h -26.4375 q 0.375,5.9375 3.5625,9.0625 3.21875,3.09375 8.9375,3.09375 3.3125,0 6.40625,-0.8125 3.125,-0.8125 6.1875,-2.4375 v 5.4375 q -3.09375,1.3125 -6.34375,2 -3.25,0.6875 -6.59375,0.6875 -8.375,0 -13.28125,-4.875 -4.875,-4.875 -4.875,-13.1875 0,-8.59375 4.625,-13.625 4.65625,-5.0625 12.53125,-5.0625 7.0625,0 11.15625,4.5625 4.125,4.53125 4.125,12.34375 z m -5.75,-1.6875 q -0.0625,-4.71875 -2.65625,-7.53125 -2.5625,-2.8125 -6.8125,-2.8125 -4.8125,0 -7.71875,2.71875 -2.875,2.71875 -3.3125,7.65625 z"
         id="path1028"
         inkscape:connector-curvature="0"
         style="stroke:#00ffff;stroke-width:1.00157475;stroke-miterlimit:4;stroke-dasharray:none;stroke-opacity:1" />
      <path
         d="m 494.35547,43.482422 h 5.75 v 48.625 h -5.75 z"
         id="path1030"
         inkscape:connector-curvature="0"
         style="stroke:#00ffff;stroke-width:1.00157475;stroke-miterlimit:4;stroke-dasharray:none;stroke-opacity:1" />
      <path
         d="m 525.66797,61.138672 q -4.625,0 -7.3125,3.625 -2.6875,3.59375 -2.6875,9.875 0,6.28125 2.65625,9.90625 2.6875,3.59375 7.34375,3.59375 4.59375,0 7.28125,-3.625 2.6875,-3.625 2.6875,-9.875 0,-6.21875 -2.6875,-9.84375 -2.6875,-3.65625 -7.28125,-3.65625 z m 0,-4.875 q 7.5,0 11.78125,4.875 4.28125,4.875 4.28125,13.5 0,8.59375 -4.28125,13.5 -4.28125,4.875 -11.78125,4.875 -7.53125,0 -11.8125,-4.875 -4.25,-4.90625 -4.25,-13.5 0,-8.625 4.25,-13.5 4.28125,-4.875 11.8125,-4.875 z"
         id="path1032"
         inkscape:connector-curvature="0"
         style="stroke:#00ffff;stroke-width:1.00157475;stroke-miterlimit:4;stroke-dasharray:none;stroke-opacity:1" />
    </g>
    <flowRoot
       xml:space="preserve"
       id="flowRoot962"
       style="font-style:normal;font-weight:normal;font-size:40px;line-height:1.25;font-family:sans-serif;letter-spacing:0px;word-spacing:0px;fill:#000000;fill-opacity:1;stroke:none"
       transform="scale(0.26458333)"><flowRegion
         id="flowRegion964"><rect
           id="rect966"
           width="542.59259"
           height="122.22222"
           x="68.518517"
           y="15.112278" /></flowRegion><flowPara
         id="flowPara968"></flowPara></flowRoot>    <flowRoot
       xml:space="preserve"
       id="flowRoot970"
       style="font-style:normal;font-weight:normal;font-size:40px;line-height:1.25;font-family:sans-serif;letter-spacing:0px;word-spacing:0px;fill:#000000;fill-opacity:1;stroke:none"
       transform="scale(0.26458333)"><flowRegion
         id="flowRegion972"><rect
           id="rect974"
           width="498.14816"
           height="55.555557"
           x="48.148148"
           y="37.334499" /></flowRegion><flowPara
         id="flowPara976"></flowPara></flowRoot>    <flowRoot
       xml:space="preserve"
       id="flowRoot978"
       style="font-style:normal;font-weight:normal;font-size:40px;line-height:1.25;font-family:sans-serif;letter-spacing:0px;word-spacing:0px;fill:#000000;fill-opacity:1;stroke:none"
       transform="scale(0.26458333)"><flowRegion
         id="flowRegion980"><rect
           id="rect982"
           width="168.51852"
           height="64.814812"
           x="68.518517"
           y="44.741909" /></flowRegion><flowPara
         id="flowPara984"></flowPara></flowRoot>    <flowRoot
       xml:space="preserve"
       id="flowRoot986"
       style="font-style:normal;font-weight:normal;font-size:40px;line-height:1.25;font-family:sans-serif;letter-spacing:0px;word-spacing:0px;fill:#000000;fill-opacity:1;stroke:none"
       transform="scale(0.26458333)"><flowRegion
         id="flowRegion988"><rect
           id="rect990"
           width="218.51852"
           height="59.259258"
           x="64.814812"
           y="42.890057" /></flowRegion><flowPara
         id="flowPara992"></flowPara></flowRoot>    <flowRoot
       xml:space="preserve"
       id="flowRoot994"
       style="font-style:normal;font-weight:normal;font-size:40px;line-height:1.25;font-family:sans-serif;letter-spacing:0px;word-spacing:0px;fill:#000000;fill-opacity:1;stroke:none"
       transform="scale(0.26458333)"><flowRegion
         id="flowRegion996"><rect
           id="rect998"
           width="483.33334"
           height="68.518517"
           x="66.666664"
           y="39.186352" /></flowRegion><flowPara
         id="flowPara1000"></flowPara></flowRoot>  </g>
</svg>
